<?xml version="1.0" encoding="UTF-8" standalone="no"?>
<!-- Created with Inkscape (http://www.inkscape.org/) -->

<svg
   xmlns:dc="http://purl.org/dc/elements/1.1/"
   xmlns:cc="http://creativecommons.org/ns#"
   xmlns:rdf="http://www.w3.org/1999/02/22-rdf-syntax-ns#"
   xmlns:svg="http://www.w3.org/2000/svg"
   xmlns="http://www.w3.org/2000/svg"
   xmlns:sodipodi="http://sodipodi.sourceforge.net/DTD/sodipodi-0.dtd"
   xmlns:inkscape="http://www.inkscape.org/namespaces/inkscape"
   width="481.57999"
   height="481.57999"
   id="svg2"
   version="1.1"
   inkscape:version="0.48.4 r9939"
   sodipodi:docname="logo.svg">
  <defs
     id="defs4" />
  <sodipodi:namedview
     id="base"
     pagecolor="#ffffff"
     bordercolor="#666666"
     borderopacity="1.0"
     inkscape:pageopacity="0.0"
     inkscape:pageshadow="2"
     inkscape:zoom="0.35"
     inkscape:cx="172.35685"
     inkscape:cy="461.95108"
     inkscape:document-units="px"
     inkscape:current-layer="layer1"
     showgrid="false"
     showguides="true"
     inkscape:guide-bbox="true"
     inkscape:window-width="1600"
     inkscape:window-height="848"
     inkscape:window-x="0"
     inkscape:window-y="0"
     inkscape:window-maximized="1"
     fit-margin-top="0"
     fit-margin-left="0"
     fit-margin-right="0"
     fit-margin-bottom="0" />
  <metadata
     id="metadata7">
    <rdf:RDF>
      <cc:Work
         rdf:about="">
        <dc:format>image/svg+xml</dc:format>
        <dc:type
           rdf:resource="http://purl.org/dc/dcmitype/StillImage" />
        <dc:title />
      </cc:Work>
    </rdf:RDF>
  </metadata>
  <g
     inkscape:label="Ebene 1"
     inkscape:groupmode="layer"
     id="layer1"
     transform="translate(-19.103056,-560.64115)">
    <g
       id="g3854"
       transform="matrix(19.617137,0,0,19.617137,-3548.1507,-10565.374)">
      <path
         sodipodi:nodetypes="ccccccccccccccccccc"
         inkscape:connector-curvature="0"
         id="rect2985-5"
         d="m 182.6425,573.55968 c 0.0318,4.73258 0.0312,9.47861 0.0312,14.25 l 2.75,0 0,-6.40625 3.84375,0 0,-2.8125 -3.84375,0 0,-2.34375 6.875,0 0,11.65625 2.78125,0 0,-11.65625 5,0 0,11.6875 2.78125,0 0,-11.6875 3.53125,0 0,-2.6875 z"
         style="fill:#a9a9a9;fill-opacity:1;stroke:none" />
      <path
         sodipodi:nodetypes="ccccccccccccccccccc"
         inkscape:connector-curvature="0"
         id="rect2985"
         d="m 181.9375,572.90625 c 0.0318,4.73258 0.0312,9.47861 0.0312,14.25 l 2.75,0 0,-6.40625 3.84375,0 0,-2.8125 -3.84375,0 0,-2.34375 6.875,0 0,11.65625 2.78125,0 0,-11.65625 5,0 0,11.6875 2.78125,0 0,-11.6875 3.53125,0 0,-2.6875 z"
         style="fill:#d7714c;fill-opacity:1;stroke:#ffffff;stroke-width:0.2;stroke-miterlimit:4;stroke-opacity:1;stroke-dasharray:none" />
      <path
         transform="matrix(0.9944287,0,0,1.0680901,23.049074,-36.059398)"
         d="m 173.61996,571.30859 c 0,1.41217 -1.22958,2.55695 -2.74635,2.55695 -1.51677,0 -2.74635,-1.14478 -2.74635,-2.55695 0,-1.41216 1.22958,-2.55694 2.74635,-2.55694 1.51677,0 2.74635,1.14478 2.74635,2.55694 z"
         sodipodi:ry="2.5569487"
         sodipodi:rx="2.7463522"
         sodipodi:cy="571.30859"
         sodipodi:cx="170.87361"
         id="path3825"
         style="fill:#fabb48;fill-opacity:1;stroke:#ffffff;stroke-width:1.00038671;stroke-miterlimit:4;stroke-opacity:1;stroke-dasharray:none"
         sodipodi:type="arc" />
    </g>
  </g>
</svg>
